  0
SECTION
  2
BLOCKS
  0
ENDSEC
  0
SECTION
  2
ENTITIES
  0
LINE
  8
0
 10
-20
 11
54
 20
200
 21
200
  0
LINE
  8
0
 10
54
 11
53.487
 20
200
 21
183.674
  0
LINE
  8
0
 10
53.487
 11
51.95
 20
183.674
 21
167.413
  0
LINE
  8
0
 10
51.95
 11
49.395
 20
167.413
 21
151.281
  0
LINE
  8
0
 10
49.395
 11
45.832
 20
151.281
 21
135.341
  0
LINE
  8
0
 10
45.832
 11
41.275
 20
135.341
 21
119.656
  0
LINE
  8
0
 10
41.275
 11
35.742
 20
119.656
 21
104.288
  0
LINE
  8
0
 10
35.742
 11
34
 20
104.288
 21
100.262
  0
LINE
  8
0
 10
34
 11
34
 20
100.262
 21
0
  0
LINE
  8
0
 10
34
 11
32
 20
0
 21
0
  0
LINE
  8
0
 10
32
 11
32
 20
0
 21
-14.8
  0
LINE
  8
0
 10
32
 11
27
 20
-14.8
 21
-14.8
  0
LINE
  8
0
 10
27
 11
27
 20
-14.8
 21
0
  0
LINE
  8
0
 10
27
 11
7
 20
0
 21
0
  0
LINE
  8
0
 10
7
 11
7
 20
0
 21
-14.8
  0
LINE
  8
0
 10
7
 11
2
 20
-14.8
 21
-14.8
  0
LINE
  8
0
 10
2
 11
2
 20
-14.8
 21
0
  0
LINE
  8
0
 10
2
 11
0
 20
0
 21
0
  0
LINE
  8
0
 10
0
 11
0
 20
0
 21
100.262
  0
LINE
  8
0
 10
0
 11
-1.742
 20
100.262
 21
104.288
  0
LINE
  8
0
 10
-1.742
 11
-7.275
 20
104.288
 21
119.656
  0
LINE
  8
0
 10
-7.275
 11
-11.832
 20
119.656
 21
135.341
  0
LINE
  8
0
 10
-11.832
 11
-15.395
 20
135.341
 21
151.281
  0
LINE
  8
0
 10
-15.395
 11
-17.95
 20
151.281
 21
167.413
  0
LINE
  8
0
 10
-17.95
 11
-19.487
 20
167.413
 21
183.674
  0
LINE
  8
0
 10
-19.487
 11
-20
 20
183.674
 21
200
  0
LINE
  8
0
 10
3
 11
3
 20
-13.8
 21
-11.8
  0
LINE
  8
0
 10
3
 11
6
 20
-11.8
 21
-11.8
  0
LINE
  8
0
 10
6
 11
6
 20
-11.8
 21
-13.8
  0
LINE
  8
0
 10
6
 11
3
 20
-13.8
 21
-13.8
  0
LINE
  8
0
 10
28
 11
28
 20
-13.8
 21
-11.8
  0
LINE
  8
0
 10
28
 11
31
 20
-11.8
 21
-11.8
  0
LINE
  8
0
 10
31
 11
31
 20
-11.8
 21
-13.8
  0
LINE
  8
0
 10
31
 11
28
 20
-13.8
 21
-13.8
  0
ENDSEC
  0
SECTION
  2
OBJECTS
  0
DICTIONARY
  0
ENDSEC
  0
EOF
