  0
SECTION
  2
BLOCKS
  0
ENDSEC
  0
SECTION
  2
ENTITIES
  0
LINE
  8
0
 10
-3
 11
-3
 20
2
 21
7
  0
LINE
  8
0
 10
-3
 11
-1
 20
7
 21
7
  0
LINE
  8
0
 10
-1
 11
-1
 20
7
 21
2
  0
LINE
  8
0
 10
-1
 11
-3
 20
2
 21
2
  0
LINE
  8
0
 10
-3
 11
-3
 20
27
 21
32
  0
LINE
  8
0
 10
-3
 11
-1
 20
32
 21
32
  0
LINE
  8
0
 10
-1
 11
-1
 20
32
 21
27
  0
LINE
  8
0
 10
-1
 11
-3
 20
27
 21
27
  0
LINE
  8
0
 10
2
 11
2
 20
2
 21
16
  0
LINE
  8
0
 10
2
 11
16
 20
16
 21
16
  0
LINE
  8
0
 10
16
 11
16
 20
16
 21
2
  0
LINE
  8
0
 10
16
 11
2
 20
2
 21
2
  0
LINE
  8
0
 10
2
 11
2
 20
18
 21
32
  0
LINE
  8
0
 10
2
 11
16
 20
32
 21
32
  0
LINE
  8
0
 10
16
 11
16
 20
32
 21
18
  0
LINE
  8
0
 10
16
 11
2
 20
18
 21
18
  0
LINE
  8
0
 10
18
 11
18
 20
2
 21
16
  0
LINE
  8
0
 10
18
 11
32
 20
16
 21
16
  0
LINE
  8
0
 10
32
 11
32
 20
16
 21
2
  0
LINE
  8
0
 10
32
 11
18
 20
2
 21
2
  0
LINE
  8
0
 10
18
 11
18
 20
18
 21
32
  0
LINE
  8
0
 10
18
 11
32
 20
32
 21
32
  0
LINE
  8
0
 10
32
 11
32
 20
32
 21
18
  0
LINE
  8
0
 10
32
 11
18
 20
18
 21
18
  0
LINE
  8
0
 10
34
 11
34
 20
2
 21
16
  0
LINE
  8
0
 10
34
 11
48
 20
16
 21
16
  0
LINE
  8
0
 10
48
 11
48
 20
16
 21
2
  0
LINE
  8
0
 10
48
 11
34
 20
2
 21
2
  0
LINE
  8
0
 10
34
 11
34
 20
18
 21
32
  0
LINE
  8
0
 10
34
 11
48
 20
32
 21
32
  0
LINE
  8
0
 10
48
 11
48
 20
32
 21
18
  0
LINE
  8
0
 10
48
 11
34
 20
18
 21
18
  0
LINE
  8
0
 10
50
 11
50
 20
2
 21
16
  0
LINE
  8
0
 10
50
 11
64
 20
16
 21
16
  0
LINE
  8
0
 10
64
 11
64
 20
16
 21
2
  0
LINE
  8
0
 10
64
 11
50
 20
2
 21
2
  0
LINE
  8
0
 10
50
 11
50
 20
18
 21
32
  0
LINE
  8
0
 10
50
 11
64
 20
32
 21
32
  0
LINE
  8
0
 10
64
 11
64
 20
32
 21
18
  0
LINE
  8
0
 10
64
 11
50
 20
18
 21
18
  0
LINE
  8
0
 10
66
 11
66
 20
2
 21
16
  0
LINE
  8
0
 10
66
 11
80
 20
16
 21
16
  0
LINE
  8
0
 10
80
 11
80
 20
16
 21
2
  0
LINE
  8
0
 10
80
 11
66
 20
2
 21
2
  0
LINE
  8
0
 10
66
 11
66
 20
18
 21
32
  0
LINE
  8
0
 10
66
 11
80
 20
32
 21
32
  0
LINE
  8
0
 10
80
 11
80
 20
32
 21
18
  0
LINE
  8
0
 10
80
 11
66
 20
18
 21
18
  0
LINE
  8
0
 10
82
 11
82
 20
2
 21
16
  0
LINE
  8
0
 10
82
 11
96
 20
16
 21
16
  0
LINE
  8
0
 10
96
 11
96
 20
16
 21
2
  0
LINE
  8
0
 10
96
 11
82
 20
2
 21
2
  0
LINE
  8
0
 10
82
 11
82
 20
18
 21
32
  0
LINE
  8
0
 10
82
 11
96
 20
32
 21
32
  0
LINE
  8
0
 10
96
 11
96
 20
32
 21
18
  0
LINE
  8
0
 10
96
 11
82
 20
18
 21
18
  0
LINE
  8
0
 10
98
 11
98
 20
2
 21
16
  0
LINE
  8
0
 10
98
 11
112
 20
16
 21
16
  0
LINE
  8
0
 10
112
 11
112
 20
16
 21
2
  0
LINE
  8
0
 10
112
 11
98
 20
2
 21
2
  0
LINE
  8
0
 10
98
 11
98
 20
18
 21
32
  0
LINE
  8
0
 10
98
 11
112
 20
32
 21
32
  0
LINE
  8
0
 10
112
 11
112
 20
32
 21
18
  0
LINE
  8
0
 10
112
 11
98
 20
18
 21
18
  0
LINE
  8
0
 10
114
 11
114
 20
2
 21
16
  0
LINE
  8
0
 10
114
 11
128
 20
16
 21
16
  0
LINE
  8
0
 10
128
 11
128
 20
16
 21
2
  0
LINE
  8
0
 10
128
 11
114
 20
2
 21
2
  0
LINE
  8
0
 10
114
 11
114
 20
18
 21
32
  0
LINE
  8
0
 10
114
 11
128
 20
32
 21
32
  0
LINE
  8
0
 10
128
 11
128
 20
32
 21
18
  0
LINE
  8
0
 10
128
 11
114
 20
18
 21
18
  0
LINE
  8
0
 10
-5
 11
-5
 20
0
 21
34
  0
LINE
  8
0
 10
-5
 11
135
 20
34
 21
34
  0
LINE
  8
0
 10
135
 11
135
 20
34
 21
0
  0
LINE
  8
0
 10
135
 11
-5
 20
0
 21
0
  0
LINE
  8
0
 10
130
 11
130
 20
2
 21
7
  0
LINE
  8
0
 10
130
 11
132
 20
7
 21
7
  0
LINE
  8
0
 10
132
 11
132
 20
7
 21
2
  0
LINE
  8
0
 10
132
 11
130
 20
2
 21
2
  0
LINE
  8
0
 10
130
 11
130
 20
27
 21
32
  0
LINE
  8
0
 10
130
 11
132
 20
32
 21
32
  0
LINE
  8
0
 10
132
 11
132
 20
32
 21
27
  0
LINE
  8
0
 10
132
 11
130
 20
27
 21
27
  0
ENDSEC
  0
SECTION
  2
OBJECTS
  0
DICTIONARY
  0
ENDSEC
  0
EOF
