  0
SECTION
  2
BLOCKS
  0
ENDSEC
  0
SECTION
  2
ENTITIES
  0
LINE
  8
0
 10
0
 11
0
 20
0
 21
150
  0
LINE
  8
0
 10
0
 11
135
 20
150
 21
150
  0
LINE
  8
0
 10
135
 11
135
 20
150
 21
137.5
  0
LINE
  8
0
 10
135
 11
138
 20
137.5
 21
137.5
  0
LINE
  8
0
 10
138
 11
138
 20
137.5
 21
150
  0
LINE
  8
0
 10
138
 11
144
 20
150
 21
150
  0
LINE
  8
0
 10
144
 11
144
 20
150
 21
125
  0
LINE
  8
0
 10
144
 11
35
 20
125
 21
125
  0
LINE
  8
0
 10
35
 11
35
 20
125
 21
35
  0
LINE
  8
0
 10
35
 11
135
 20
35
 21
35
  0
LINE
  8
0
 10
135
 11
135
 20
35
 21
0
  0
LINE
  8
0
 10
135
 11
120.15
 20
0
 21
0
  0
LINE
  8
0
 10
120.15
 11
120.15
 20
0
 21
17.5
  0
LINE
  8
0
 10
120.15
 11
117.5
 20
17.5
 21
17.5
  0
LINE
  8
0
 10
117.5
 11
117.5
 20
17.5
 21
0
  0
LINE
  8
0
 10
117.5
 11
20.15
 20
0
 21
0
  0
LINE
  8
0
 10
20.15
 11
20.15
 20
0
 21
17.5
  0
LINE
  8
0
 10
20.15
 11
17.5
 20
17.5
 21
17.5
  0
LINE
  8
0
 10
17.5
 11
17.5
 20
17.5
 21
0
  0
LINE
  8
0
 10
17.5
 11
0
 20
0
 21
0
  0
LINE
  8
0
 10
150
 11
150
 20
0
 21
35
  0
LINE
  8
0
 10
150
 11
270
 20
35
 21
35
  0
LINE
  8
0
 10
270
 11
270
 20
35
 21
0
  0
LINE
  8
0
 10
270
 11
211.325
 20
0
 21
0
  0
LINE
  8
0
 10
211.325
 11
211.325
 20
0
 21
17.5
  0
LINE
  8
0
 10
211.325
 11
208.675
 20
17.5
 21
17.5
  0
LINE
  8
0
 10
208.675
 11
208.675
 20
17.5
 21
0
  0
LINE
  8
0
 10
208.675
 11
150
 20
0
 21
0
  0
LINE
  8
0
 10
150
 11
150
 20
52.5
 21
77.5
  0
LINE
  8
0
 10
150
 11
200
 20
77.5
 21
77.5
  0
LINE
  8
0
 10
200
 11
200
 20
77.5
 21
52.5
  0
LINE
  8
0
 10
200
 11
176.325
 20
52.5
 21
52.5
  0
LINE
  8
0
 10
176.325
 11
176.325
 20
52.5
 21
65
  0
LINE
  8
0
 10
176.325
 11
173.675
 20
65
 21
65
  0
LINE
  8
0
 10
173.675
 11
173.675
 20
65
 21
52.5
  0
LINE
  8
0
 10
173.675
 11
150
 20
52.5
 21
52.5
  0
ENDSEC
  0
SECTION
  2
OBJECTS
  0
DICTIONARY
  0
ENDSEC
  0
EOF
