  0
SECTION
  2
BLOCKS
  0
ENDSEC
  0
SECTION
  2
ENTITIES
  0
LINE
  8
0
 10
-18.48
 11
-13.335
 20
-5.684
 21
-5.234
  0
LINE
  8
0
 10
-13.335
 11
-13.5
 20
-5.234
 21
0
  0
LINE
  8
0
 10
-13.5
 11
-13.335
 20
0
 21
5.235
  0
LINE
  8
0
 10
-13.335
 11
-18.48
 20
5.235
 21
5.685
  0
LINE
  8
0
 10
-18.48
 11
-17.569
 20
5.685
 21
16.105
  0
LINE
  8
0
 10
-17.569
 11
-12.456
 20
16.105
 21
15.658
  0
LINE
  8
0
 10
-12.456
 11
-11.374
 20
15.658
 21
22.486
  0
LINE
  8
0
 10
-11.374
 11
-10.597
 20
22.486
 21
25.963
  0
LINE
  8
0
 10
-10.597
 11
-15.594
 20
25.963
 21
27.302
  0
LINE
  8
0
 10
-15.594
 11
-12.887
 20
27.302
 21
37.404
  0
LINE
  8
0
 10
-12.887
 11
-7.92
 20
37.404
 21
36.073
  0
LINE
  8
0
 10
-7.92
 11
-7.696
 20
36.073
 21
36.845
  0
LINE
  8
0
 10
-7.696
 11
-5.177
 20
36.845
 21
35.978
  0
LINE
  8
0
 10
-5.177
 11
-5.175
 20
35.978
 21
35.978
  0
LINE
  8
0
 10
-5.175
 11
-3.881
 20
35.978
 21
40.808
  0
LINE
  8
0
 10
-3.881
 11
-3.883
 20
40.808
 21
40.808
  0
LINE
  8
0
 10
-3.883
 11
-5.176
 20
40.808
 21
35.982
  0
LINE
  8
0
 10
-5.176
 11
-7.695
 20
35.982
 21
36.849
  0
LINE
  8
0
 10
-7.695
 11
-7.627
 20
36.849
 21
37.082
  0
LINE
  8
0
 10
-7.627
 11
-5.073
 20
37.082
 21
44.175
  0
LINE
  8
0
 10
-5.073
 11
-4.189
 20
44.175
 21
46.219
  0
LINE
  8
0
 10
-4.189
 11
-3.681
 20
46.219
 21
45.999
  0
LINE
  8
0
 10
-3.681
 11
-3.09
 20
45.999
 21
45.786
  0
LINE
  8
0
 10
-3.09
 11
-2.487
 20
45.786
 21
45.611
  0
LINE
  8
0
 10
-2.487
 11
-1.874
 20
45.611
 21
45.474
  0
LINE
  8
0
 10
-1.874
 11
-1.253
 20
45.474
 21
45.376
  0
LINE
  8
0
 10
-1.253
 11
-0.628
 20
45.376
 21
45.317
  0
LINE
  8
0
 10
-0.628
 11
0
 20
45.317
 21
45.297
  0
LINE
  8
0
 10
0
 11
0.628
 20
45.297
 21
45.317
  0
LINE
  8
0
 10
0.628
 11
1.253
 20
45.317
 21
45.376
  0
LINE
  8
0
 10
1.253
 11
1.874
 20
45.376
 21
45.474
  0
LINE
  8
0
 10
1.874
 11
2.487
 20
45.474
 21
45.611
  0
LINE
  8
0
 10
2.487
 11
3.09
 20
45.611
 21
45.786
  0
LINE
  8
0
 10
3.09
 11
3.681
 20
45.786
 21
45.999
  0
LINE
  8
0
 10
3.681
 11
4.189
 20
45.999
 21
46.219
  0
LINE
  8
0
 10
4.189
 11
5.073
 20
46.219
 21
44.175
  0
LINE
  8
0
 10
5.073
 11
7.627
 20
44.175
 21
37.082
  0
LINE
  8
0
 10
7.627
 11
7.695
 20
37.082
 21
36.849
  0
LINE
  8
0
 10
7.695
 11
5.176
 20
36.849
 21
35.982
  0
LINE
  8
0
 10
5.176
 11
3.883
 20
35.982
 21
40.808
  0
LINE
  8
0
 10
3.883
 11
3.881
 20
40.808
 21
40.808
  0
LINE
  8
0
 10
3.881
 11
5.175
 20
40.808
 21
35.978
  0
LINE
  8
0
 10
5.175
 11
5.177
 20
35.978
 21
35.979
  0
LINE
  8
0
 10
5.177
 11
7.696
 20
35.979
 21
36.845
  0
LINE
  8
0
 10
7.696
 11
9.73
 20
36.845
 21
29.843
  0
LINE
  8
0
 10
9.73
 11
10.598
 20
29.843
 21
25.958
  0
LINE
  8
0
 10
10.598
 11
15.693
 20
25.958
 21
26.856
  0
LINE
  8
0
 10
15.693
 11
17.509
 20
26.856
 21
16.555
  0
LINE
  8
0
 10
17.509
 11
12.455
 20
16.555
 21
15.664
  0
LINE
  8
0
 10
12.455
 11
12.554
 20
15.664
 21
15.04
  0
LINE
  8
0
 10
12.554
 11
13.263
 20
15.04
 21
7.535
  0
LINE
  8
0
 10
13.263
 11
13.336
 20
7.535
 21
5.229
  0
LINE
  8
0
 10
13.336
 11
18.5
 20
5.229
 21
5.229
  0
LINE
  8
0
 10
18.5
 11
18.5
 20
5.229
 21
-5.23
  0
LINE
  8
0
 10
18.5
 11
13.335
 20
-5.23
 21
-5.23
  0
LINE
  8
0
 10
13.335
 11
13.263
 20
-5.23
 21
-7.535
  0
LINE
  8
0
 10
13.263
 11
12.554
 20
-7.535
 21
-15.04
  0
LINE
  8
0
 10
12.554
 11
12.455
 20
-15.04
 21
-15.665
  0
LINE
  8
0
 10
12.455
 11
17.509
 20
-15.665
 21
-16.556
  0
LINE
  8
0
 10
17.509
 11
15.693
 20
-16.556
 21
-26.857
  0
LINE
  8
0
 10
15.693
 11
10.598
 20
-26.857
 21
-25.959
  0
LINE
  8
0
 10
10.598
 11
9.73
 20
-25.959
 21
-29.843
  0
LINE
  8
0
 10
9.73
 11
7.627
 20
-29.843
 21
-37.082
  0
LINE
  8
0
 10
7.627
 11
5.073
 20
-37.082
 21
-44.175
  0
LINE
  8
0
 10
5.073
 11
4.189
 20
-44.175
 21
-46.219
  0
LINE
  8
0
 10
4.189
 11
3.681
 20
-46.219
 21
-45.999
  0
LINE
  8
0
 10
3.681
 11
3.09
 20
-45.999
 21
-45.786
  0
LINE
  8
0
 10
3.09
 11
2.487
 20
-45.786
 21
-45.611
  0
LINE
  8
0
 10
2.487
 11
1.874
 20
-45.611
 21
-45.474
  0
LINE
  8
0
 10
1.874
 11
1.253
 20
-45.474
 21
-45.376
  0
LINE
  8
0
 10
1.253
 11
0.628
 20
-45.376
 21
-45.317
  0
LINE
  8
0
 10
0.628
 11
0
 20
-45.317
 21
-45.297
  0
LINE
  8
0
 10
0
 11
-0.628
 20
-45.297
 21
-45.317
  0
LINE
  8
0
 10
-0.628
 11
-1.253
 20
-45.317
 21
-45.376
  0
LINE
  8
0
 10
-1.253
 11
-1.874
 20
-45.376
 21
-45.474
  0
LINE
  8
0
 10
-1.874
 11
-2.487
 20
-45.474
 21
-45.611
  0
LINE
  8
0
 10
-2.487
 11
-3.09
 20
-45.611
 21
-45.786
  0
LINE
  8
0
 10
-3.09
 11
-3.681
 20
-45.786
 21
-45.999
  0
LINE
  8
0
 10
-3.681
 11
-4.189
 20
-45.999
 21
-46.219
  0
LINE
  8
0
 10
-4.189
 11
-5.073
 20
-46.219
 21
-44.175
  0
LINE
  8
0
 10
-5.073
 11
-7.627
 20
-44.175
 21
-37.082
  0
LINE
  8
0
 10
-7.627
 11
-7.92
 20
-37.082
 21
-36.072
  0
LINE
  8
0
 10
-7.92
 11
-12.887
 20
-36.072
 21
-37.403
  0
LINE
  8
0
 10
-12.887
 11
-15.594
 20
-37.403
 21
-27.301
  0
LINE
  8
0
 10
-15.594
 11
-10.597
 20
-27.301
 21
-25.962
  0
LINE
  8
0
 10
-10.597
 11
-11.374
 20
-25.962
 21
-22.486
  0
LINE
  8
0
 10
-11.374
 11
-12.456
 20
-22.486
 21
-15.657
  0
LINE
  8
0
 10
-12.456
 11
-17.569
 20
-15.657
 21
-16.104
  0
LINE
  8
0
 10
-17.569
 11
-18.48
 20
-16.104
 21
-5.684
  0
LINE
  8
0
 10
-3.883
 11
-3.881
 20
-40.808
 21
-40.808
  0
LINE
  8
0
 10
-3.881
 11
-2.587
 20
-40.808
 21
-45.637
  0
LINE
  8
0
 10
-2.587
 11
-2.589
 20
-45.637
 21
-45.638
  0
LINE
  8
0
 10
-2.589
 11
-3.883
 20
-45.638
 21
-40.808
  0
LINE
  8
0
 10
2.587
 11
3.881
 20
-45.637
 21
-40.808
  0
LINE
  8
0
 10
3.881
 11
3.883
 20
-40.808
 21
-40.808
  0
LINE
  8
0
 10
3.883
 11
2.589
 20
-40.808
 21
-45.638
  0
LINE
  8
0
 10
2.589
 11
2.587
 20
-45.638
 21
-45.637
  0
ENDSEC
  0
SECTION
  2
OBJECTS
  0
DICTIONARY
  0
ENDSEC
  0
EOF
