  0
SECTION
  2
BLOCKS
  0
ENDSEC
  0
SECTION
  2
ENTITIES
  0
LINE
  8
0
 10
-13.5
 11
-13.335
 20
0
 21
5.236
  0
LINE
  8
0
 10
-13.335
 11
-10.71
 20
5.236
 21
5.006
  0
LINE
  8
0
 10
-10.71
 11
-9.798
 20
5.006
 21
15.425
  0
LINE
  8
0
 10
-9.798
 11
-12.456
 20
15.425
 21
15.657
  0
LINE
  8
0
 10
-12.456
 11
-11.374
 20
15.657
 21
22.486
  0
LINE
  8
0
 10
-11.374
 11
-10.597
 20
22.486
 21
25.962
  0
LINE
  8
0
 10
-10.597
 11
-8.06
 20
25.962
 21
25.283
  0
LINE
  8
0
 10
-8.06
 11
-5.353
 20
25.283
 21
35.385
  0
LINE
  8
0
 10
-5.353
 11
-7.92
 20
35.385
 21
36.073
  0
LINE
  8
0
 10
-7.92
 11
-7.696
 20
36.073
 21
36.845
  0
LINE
  8
0
 10
-7.696
 11
-5.177
 20
36.845
 21
35.978
  0
LINE
  8
0
 10
-5.177
 11
-5.175
 20
35.978
 21
35.978
  0
LINE
  8
0
 10
-5.175
 11
-3.881
 20
35.978
 21
40.808
  0
LINE
  8
0
 10
-3.881
 11
-3.883
 20
40.808
 21
40.808
  0
LINE
  8
0
 10
-3.883
 11
-5.176
 20
40.808
 21
35.982
  0
LINE
  8
0
 10
-5.176
 11
-7.695
 20
35.982
 21
36.849
  0
LINE
  8
0
 10
-7.695
 11
-7.627
 20
36.849
 21
37.082
  0
LINE
  8
0
 10
-7.627
 11
-5.073
 20
37.082
 21
44.175
  0
LINE
  8
0
 10
-5.073
 11
-4.189
 20
44.175
 21
46.219
  0
LINE
  8
0
 10
-4.189
 11
-3.681
 20
46.219
 21
45.999
  0
LINE
  8
0
 10
-3.681
 11
-3.09
 20
45.999
 21
45.786
  0
LINE
  8
0
 10
-3.09
 11
-2.487
 20
45.786
 21
45.611
  0
LINE
  8
0
 10
-2.487
 11
-1.874
 20
45.611
 21
45.474
  0
LINE
  8
0
 10
-1.874
 11
-1.253
 20
45.474
 21
45.376
  0
LINE
  8
0
 10
-1.253
 11
-0.628
 20
45.376
 21
45.317
  0
LINE
  8
0
 10
-0.628
 11
0
 20
45.317
 21
45.297
  0
LINE
  8
0
 10
0
 11
0.628
 20
45.297
 21
45.317
  0
LINE
  8
0
 10
0.628
 11
1.253
 20
45.317
 21
45.376
  0
LINE
  8
0
 10
1.253
 11
1.874
 20
45.376
 21
45.474
  0
LINE
  8
0
 10
1.874
 11
2.487
 20
45.474
 21
45.611
  0
LINE
  8
0
 10
2.487
 11
3.09
 20
45.611
 21
45.786
  0
LINE
  8
0
 10
3.09
 11
3.681
 20
45.786
 21
45.999
  0
LINE
  8
0
 10
3.681
 11
4.189
 20
45.999
 21
46.219
  0
LINE
  8
0
 10
4.189
 11
5.073
 20
46.219
 21
44.175
  0
LINE
  8
0
 10
5.073
 11
7.627
 20
44.175
 21
37.082
  0
LINE
  8
0
 10
7.627
 11
7.695
 20
37.082
 21
36.849
  0
LINE
  8
0
 10
7.695
 11
5.176
 20
36.849
 21
35.982
  0
LINE
  8
0
 10
5.176
 11
3.883
 20
35.982
 21
40.808
  0
LINE
  8
0
 10
3.883
 11
3.881
 20
40.808
 21
40.808
  0
LINE
  8
0
 10
3.881
 11
5.175
 20
40.808
 21
35.978
  0
LINE
  8
0
 10
5.175
 11
5.177
 20
35.978
 21
35.979
  0
LINE
  8
0
 10
5.177
 11
7.696
 20
35.979
 21
36.845
  0
LINE
  8
0
 10
7.696
 11
9.73
 20
36.845
 21
29.843
  0
LINE
  8
0
 10
9.73
 11
10.598
 20
29.843
 21
25.957
  0
LINE
  8
0
 10
10.598
 11
8.011
 20
25.957
 21
25.501
  0
LINE
  8
0
 10
8.011
 11
9.828
 20
25.501
 21
15.201
  0
LINE
  8
0
 10
9.828
 11
12.455
 20
15.201
 21
15.664
  0
LINE
  8
0
 10
12.455
 11
12.554
 20
15.664
 21
15.04
  0
LINE
  8
0
 10
12.554
 11
13.263
 20
15.04
 21
7.535
  0
LINE
  8
0
 10
13.263
 11
13.336
 20
7.535
 21
5.229
  0
LINE
  8
0
 10
13.336
 11
10.7
 20
5.229
 21
5.229
  0
LINE
  8
0
 10
10.7
 11
10.7
 20
5.229
 21
-5.23
  0
LINE
  8
0
 10
10.7
 11
13.335
 20
-5.23
 21
-5.23
  0
LINE
  8
0
 10
13.335
 11
13.263
 20
-5.23
 21
-7.535
  0
LINE
  8
0
 10
13.263
 11
12.554
 20
-7.535
 21
-15.04
  0
LINE
  8
0
 10
12.554
 11
12.455
 20
-15.04
 21
-15.665
  0
LINE
  8
0
 10
12.455
 11
9.827
 20
-15.665
 21
-15.202
  0
LINE
  8
0
 10
9.827
 11
8.011
 20
-15.202
 21
-25.502
  0
LINE
  8
0
 10
8.011
 11
10.598
 20
-25.502
 21
-25.958
  0
LINE
  8
0
 10
10.598
 11
9.73
 20
-25.958
 21
-29.843
  0
LINE
  8
0
 10
9.73
 11
7.627
 20
-29.843
 21
-37.082
  0
LINE
  8
0
 10
7.627
 11
5.073
 20
-37.082
 21
-44.175
  0
LINE
  8
0
 10
5.073
 11
4.189
 20
-44.175
 21
-46.219
  0
LINE
  8
0
 10
4.189
 11
3.681
 20
-46.219
 21
-45.999
  0
LINE
  8
0
 10
3.681
 11
3.09
 20
-45.999
 21
-45.786
  0
LINE
  8
0
 10
3.09
 11
2.487
 20
-45.786
 21
-45.611
  0
LINE
  8
0
 10
2.487
 11
1.874
 20
-45.611
 21
-45.474
  0
LINE
  8
0
 10
1.874
 11
1.253
 20
-45.474
 21
-45.376
  0
LINE
  8
0
 10
1.253
 11
0.628
 20
-45.376
 21
-45.317
  0
LINE
  8
0
 10
0.628
 11
0
 20
-45.317
 21
-45.297
  0
LINE
  8
0
 10
0
 11
-0.628
 20
-45.297
 21
-45.317
  0
LINE
  8
0
 10
-0.628
 11
-1.253
 20
-45.317
 21
-45.376
  0
LINE
  8
0
 10
-1.253
 11
-1.874
 20
-45.376
 21
-45.474
  0
LINE
  8
0
 10
-1.874
 11
-2.487
 20
-45.474
 21
-45.611
  0
LINE
  8
0
 10
-2.487
 11
-3.09
 20
-45.611
 21
-45.786
  0
LINE
  8
0
 10
-3.09
 11
-3.681
 20
-45.786
 21
-45.999
  0
LINE
  8
0
 10
-3.681
 11
-4.189
 20
-45.999
 21
-46.219
  0
LINE
  8
0
 10
-4.189
 11
-5.073
 20
-46.219
 21
-44.175
  0
LINE
  8
0
 10
-5.073
 11
-7.627
 20
-44.175
 21
-37.082
  0
LINE
  8
0
 10
-7.627
 11
-7.92
 20
-37.082
 21
-36.072
  0
LINE
  8
0
 10
-7.92
 11
-5.353
 20
-36.072
 21
-35.384
  0
LINE
  8
0
 10
-5.353
 11
-8.06
 20
-35.384
 21
-25.282
  0
LINE
  8
0
 10
-8.06
 11
-10.597
 20
-25.282
 21
-25.961
  0
LINE
  8
0
 10
-10.597
 11
-11.374
 20
-25.961
 21
-22.486
  0
LINE
  8
0
 10
-11.374
 11
-12.456
 20
-22.486
 21
-15.656
  0
LINE
  8
0
 10
-12.456
 11
-9.798
 20
-15.656
 21
-15.424
  0
LINE
  8
0
 10
-9.798
 11
-10.71
 20
-15.424
 21
-5.005
  0
LINE
  8
0
 10
-10.71
 11
-13.335
 20
-5.005
 21
-5.235
  0
LINE
  8
0
 10
-13.335
 11
-13.5
 20
-5.235
 21
0
  0
LINE
  8
0
 10
-3.883
 11
-3.881
 20
-40.808
 21
-40.808
  0
LINE
  8
0
 10
-3.881
 11
-2.587
 20
-40.808
 21
-45.637
  0
LINE
  8
0
 10
-2.587
 11
-2.589
 20
-45.637
 21
-45.638
  0
LINE
  8
0
 10
-2.589
 11
-3.883
 20
-45.638
 21
-40.808
  0
LINE
  8
0
 10
2.587
 11
3.881
 20
-45.637
 21
-40.808
  0
LINE
  8
0
 10
3.881
 11
3.883
 20
-40.808
 21
-40.808
  0
LINE
  8
0
 10
3.883
 11
2.589
 20
-40.808
 21
-45.638
  0
LINE
  8
0
 10
2.589
 11
2.587
 20
-45.638
 21
-45.637
  0
ENDSEC
  0
SECTION
  2
OBJECTS
  0
DICTIONARY
  0
ENDSEC
  0
EOF
