  0
SECTION
  2
BLOCKS
  0
ENDSEC
  0
SECTION
  2
ENTITIES
  0
LINE
  8
0
 10
-13.5
 11
-13.474
 20
0
 21
2.513
  0
LINE
  8
0
 10
-13.474
 11
-13.395
 20
2.513
 21
5.025
  0
LINE
  8
0
 10
-13.395
 11
-13.384
 20
5.025
 21
5.239
  0
LINE
  8
0
 10
-13.384
 11
-10.592
 20
5.239
 21
4.995
  0
LINE
  8
0
 10
-10.592
 11
-10.469
 20
4.995
 21
7.359
  0
LINE
  8
0
 10
-10.469
 11
-10.289
 20
7.359
 21
9.807
  0
LINE
  8
0
 10
-10.289
 11
-10.058
 20
9.807
 21
12.251
  0
LINE
  8
0
 10
-10.058
 11
-9.776
 20
12.251
 21
14.689
  0
LINE
  8
0
 10
-9.776
 11
-9.677
 20
14.689
 21
15.414
  0
LINE
  8
0
 10
-9.677
 11
-9.689
 20
15.414
 21
15.415
  0
LINE
  8
0
 10
-9.689
 11
-9.957
 20
15.415
 21
13.269
  0
LINE
  8
0
 10
-9.957
 11
-10.209
 20
13.269
 21
10.826
  0
LINE
  8
0
 10
-10.209
 11
-10.217
 20
10.826
 21
10.725
  0
LINE
  8
0
 10
-10.217
 11
-12.996
 20
10.725
 21
10.98
  0
LINE
  8
0
 10
-12.996
 11
-12.987
 20
10.98
 21
11.085
  0
LINE
  8
0
 10
-12.987
 11
-12.729
 20
11.085
 21
13.584
  0
LINE
  8
0
 10
-12.729
 11
-12.418
 20
13.584
 21
16.078
  0
LINE
  8
0
 10
-12.418
 11
-12.403
 20
16.078
 21
16.182
  0
LINE
  8
0
 10
-12.403
 11
-12.397
 20
16.182
 21
16.181
  0
LINE
  8
0
 10
-12.397
 11
-12.213
 20
16.181
 21
17.53
  0
LINE
  8
0
 10
-12.213
 11
-11.82
 20
17.53
 21
20.012
  0
LINE
  8
0
 10
-11.82
 11
-11.374
 20
20.012
 21
22.486
  0
LINE
  8
0
 10
-11.374
 11
-10.878
 20
22.486
 21
24.949
  0
LINE
  8
0
 10
-10.878
 11
-10.648
 20
24.949
 21
25.976
  0
LINE
  8
0
 10
-10.648
 11
-7.941
 20
25.976
 21
25.251
  0
LINE
  8
0
 10
-7.941
 11
-7.603
 20
25.251
 21
26.763
  0
LINE
  8
0
 10
-7.603
 11
-7.018
 20
26.763
 21
29.146
  0
LINE
  8
0
 10
-7.018
 11
-6.383
 20
29.146
 21
31.517
  0
LINE
  8
0
 10
-6.383
 11
-5.698
 20
31.517
 21
33.875
  0
LINE
  8
0
 10
-5.698
 11
-5.235
 20
33.875
 21
35.354
  0
LINE
  8
0
 10
-5.235
 11
-7.941
 20
35.354
 21
36.079
  0
LINE
  8
0
 10
-7.941
 11
-7.706
 20
36.079
 21
36.83
  0
LINE
  8
0
 10
-7.706
 11
-7.689
 20
36.83
 21
36.823
  0
LINE
  8
0
 10
-7.689
 11
-7.301
 20
36.823
 21
36.667
  0
LINE
  8
0
 10
-7.301
 11
-6.909
 20
36.667
 21
36.517
  0
LINE
  8
0
 10
-6.909
 11
-6.515
 20
36.517
 21
36.377
  0
LINE
  8
0
 10
-6.515
 11
-6.117
 20
36.377
 21
36.245
  0
LINE
  8
0
 10
-6.117
 11
-5.716
 20
36.245
 21
36.121
  0
LINE
  8
0
 10
-5.716
 11
-5.314
 20
36.121
 21
36.005
  0
LINE
  8
0
 10
-5.314
 11
-5.179
 20
36.005
 21
35.969
  0
LINE
  8
0
 10
-5.179
 11
-5.177
 20
35.969
 21
35.979
  0
LINE
  8
0
 10
-5.177
 11
-5.172
 20
35.979
 21
35.977
  0
LINE
  8
0
 10
-5.172
 11
-3.877
 20
35.977
 21
40.807
  0
LINE
  8
0
 10
-3.877
 11
-3.887
 20
40.807
 21
40.809
  0
LINE
  8
0
 10
-3.887
 11
-5.178
 20
40.809
 21
35.99
  0
LINE
  8
0
 10
-5.178
 11
-5.309
 20
35.99
 21
36.024
  0
LINE
  8
0
 10
-5.309
 11
-5.711
 20
36.024
 21
36.141
  0
LINE
  8
0
 10
-5.711
 11
-6.111
 20
36.141
 21
36.263
  0
LINE
  8
0
 10
-6.111
 11
-6.508
 20
36.263
 21
36.396
  0
LINE
  8
0
 10
-6.508
 11
-6.903
 20
36.396
 21
36.536
  0
LINE
  8
0
 10
-6.903
 11
-7.294
 20
36.536
 21
36.686
  0
LINE
  8
0
 10
-7.294
 11
-7.682
 20
36.686
 21
36.842
  0
LINE
  8
0
 10
-7.682
 11
-7.7
 20
36.842
 21
36.85
  0
LINE
  8
0
 10
-7.7
 11
-7.627
 20
36.85
 21
37.082
  0
LINE
  8
0
 10
-7.627
 11
-6.825
 20
37.082
 21
39.464
  0
LINE
  8
0
 10
-6.825
 11
-5.974
 20
39.464
 21
41.829
  0
LINE
  8
0
 10
-5.974
 11
-5.073
 20
41.829
 21
44.175
  0
LINE
  8
0
 10
-5.073
 11
-4.232
 20
44.175
 21
46.237
  0
LINE
  8
0
 10
-4.232
 11
-4.067
 20
46.237
 21
46.162
  0
LINE
  8
0
 10
-4.067
 11
-3.875
 20
46.162
 21
46.078
  0
LINE
  8
0
 10
-3.875
 11
-3.681
 20
46.078
 21
45.999
  0
LINE
  8
0
 10
-3.681
 11
-3.486
 20
45.999
 21
45.924
  0
LINE
  8
0
 10
-3.486
 11
-3.289
 20
45.924
 21
45.853
  0
LINE
  8
0
 10
-3.289
 11
-3.09
 20
45.853
 21
45.786
  0
LINE
  8
0
 10
-3.09
 11
-2.89
 20
45.786
 21
45.724
  0
LINE
  8
0
 10
-2.89
 11
-2.689
 20
45.724
 21
45.665
  0
LINE
  8
0
 10
-2.689
 11
-2.487
 20
45.665
 21
45.611
  0
LINE
  8
0
 10
-2.487
 11
-2.284
 20
45.611
 21
45.561
  0
LINE
  8
0
 10
-2.284
 11
-2.079
 20
45.561
 21
45.516
  0
LINE
  8
0
 10
-2.079
 11
-1.874
 20
45.516
 21
45.474
  0
LINE
  8
0
 10
-1.874
 11
-1.668
 20
45.474
 21
45.437
  0
LINE
  8
0
 10
-1.668
 11
-1.461
 20
45.437
 21
45.404
  0
LINE
  8
0
 10
-1.461
 11
-1.253
 20
45.404
 21
45.376
  0
LINE
  8
0
 10
-1.253
 11
-1.045
 20
45.376
 21
45.352
  0
LINE
  8
0
 10
-1.045
 11
-0.837
 20
45.352
 21
45.332
  0
LINE
  8
0
 10
-0.837
 11
-0.628
 20
45.332
 21
45.317
  0
LINE
  8
0
 10
-0.628
 11
-0.419
 20
45.317
 21
45.306
  0
LINE
  8
0
 10
-0.419
 11
-0.209
 20
45.306
 21
45.299
  0
LINE
  8
0
 10
-0.209
 11
0
 20
45.299
 21
45.297
  0
LINE
  8
0
 10
0
 11
0.209
 20
45.297
 21
45.299
  0
LINE
  8
0
 10
0.209
 11
0.419
 20
45.299
 21
45.306
  0
LINE
  8
0
 10
0.419
 11
0.628
 20
45.306
 21
45.317
  0
LINE
  8
0
 10
0.628
 11
0.837
 20
45.317
 21
45.332
  0
LINE
  8
0
 10
0.837
 11
1.045
 20
45.332
 21
45.352
  0
LINE
  8
0
 10
1.045
 11
1.253
 20
45.352
 21
45.376
  0
LINE
  8
0
 10
1.253
 11
1.461
 20
45.376
 21
45.404
  0
LINE
  8
0
 10
1.461
 11
1.668
 20
45.404
 21
45.437
  0
LINE
  8
0
 10
1.668
 11
1.874
 20
45.437
 21
45.474
  0
LINE
  8
0
 10
1.874
 11
2.079
 20
45.474
 21
45.516
  0
LINE
  8
0
 10
2.079
 11
2.284
 20
45.516
 21
45.561
  0
LINE
  8
0
 10
2.284
 11
2.487
 20
45.561
 21
45.611
  0
LINE
  8
0
 10
2.487
 11
2.689
 20
45.611
 21
45.665
  0
LINE
  8
0
 10
2.689
 11
2.89
 20
45.665
 21
45.724
  0
LINE
  8
0
 10
2.89
 11
3.09
 20
45.724
 21
45.786
  0
LINE
  8
0
 10
3.09
 11
3.289
 20
45.786
 21
45.853
  0
LINE
  8
0
 10
3.289
 11
3.486
 20
45.853
 21
45.924
  0
LINE
  8
0
 10
3.486
 11
3.681
 20
45.924
 21
45.999
  0
LINE
  8
0
 10
3.681
 11
3.875
 20
45.999
 21
46.078
  0
LINE
  8
0
 10
3.875
 11
4.067
 20
46.078
 21
46.162
  0
LINE
  8
0
 10
4.067
 11
4.232
 20
46.162
 21
46.237
  0
LINE
  8
0
 10
4.232
 11
5.073
 20
46.237
 21
44.175
  0
LINE
  8
0
 10
5.073
 11
5.974
 20
44.175
 21
41.829
  0
LINE
  8
0
 10
5.974
 11
6.825
 20
41.829
 21
39.464
  0
LINE
  8
0
 10
6.825
 11
7.627
 20
39.464
 21
37.082
  0
LINE
  8
0
 10
7.627
 11
7.7
 20
37.082
 21
36.85
  0
LINE
  8
0
 10
7.7
 11
7.682
 20
36.85
 21
36.842
  0
LINE
  8
0
 10
7.682
 11
7.294
 20
36.842
 21
36.686
  0
LINE
  8
0
 10
7.294
 11
6.903
 20
36.686
 21
36.536
  0
LINE
  8
0
 10
6.903
 11
6.508
 20
36.536
 21
36.396
  0
LINE
  8
0
 10
6.508
 11
6.111
 20
36.396
 21
36.263
  0
LINE
  8
0
 10
6.111
 11
5.711
 20
36.263
 21
36.141
  0
LINE
  8
0
 10
5.711
 11
5.309
 20
36.141
 21
36.024
  0
LINE
  8
0
 10
5.309
 11
5.178
 20
36.024
 21
35.99
  0
LINE
  8
0
 10
5.178
 11
3.887
 20
35.99
 21
40.809
  0
LINE
  8
0
 10
3.887
 11
3.877
 20
40.809
 21
40.807
  0
LINE
  8
0
 10
3.877
 11
5.172
 20
40.807
 21
35.977
  0
LINE
  8
0
 10
5.172
 11
5.177
 20
35.977
 21
35.979
  0
LINE
  8
0
 10
5.177
 11
5.179
 20
35.979
 21
35.969
  0
LINE
  8
0
 10
5.179
 11
5.314
 20
35.969
 21
36.005
  0
LINE
  8
0
 10
5.314
 11
5.716
 20
36.005
 21
36.121
  0
LINE
  8
0
 10
5.716
 11
6.117
 20
36.121
 21
36.245
  0
LINE
  8
0
 10
6.117
 11
6.515
 20
36.245
 21
36.377
  0
LINE
  8
0
 10
6.515
 11
6.909
 20
36.377
 21
36.517
  0
LINE
  8
0
 10
6.909
 11
7.301
 20
36.517
 21
36.667
  0
LINE
  8
0
 10
7.301
 11
7.689
 20
36.667
 21
36.823
  0
LINE
  8
0
 10
7.689
 11
7.706
 20
36.823
 21
36.83
  0
LINE
  8
0
 10
7.706
 11
8.378
 20
36.83
 21
34.684
  0
LINE
  8
0
 10
8.378
 11
9.08
 20
34.684
 21
32.27
  0
LINE
  8
0
 10
9.08
 11
9.73
 20
32.27
 21
29.843
  0
LINE
  8
0
 10
9.73
 11
10.329
 20
29.843
 21
27.402
  0
LINE
  8
0
 10
10.329
 11
10.535
 20
27.402
 21
26.483
  0
LINE
  8
0
 10
10.535
 11
10.541
 20
26.483
 21
26.484
  0
LINE
  8
0
 10
10.541
 11
10.564
 20
26.484
 21
26.382
  0
LINE
  8
0
 10
10.564
 11
11.091
 20
26.382
 21
23.924
  0
LINE
  8
0
 10
11.091
 11
11.566
 20
23.924
 21
21.456
  0
LINE
  8
0
 10
11.566
 11
11.584
 20
21.456
 21
21.353
  0
LINE
  8
0
 10
11.584
 11
8.838
 20
21.353
 21
20.856
  0
LINE
  8
0
 10
8.838
 11
8.821
 20
20.856
 21
20.957
  0
LINE
  8
0
 10
8.821
 11
8.357
 20
20.957
 21
23.368
  0
LINE
  8
0
 10
8.357
 11
7.903
 20
23.368
 21
25.482
  0
LINE
  8
0
 10
7.903
 11
7.89
 20
25.482
 21
25.48
  0
LINE
  8
0
 10
7.89
 11
8.139
 20
25.48
 21
24.367
  0
LINE
  8
0
 10
8.139
 11
8.624
 20
24.367
 21
21.961
  0
LINE
  8
0
 10
8.624
 11
9.059
 20
21.961
 21
19.545
  0
LINE
  8
0
 10
9.059
 11
9.443
 20
19.545
 21
17.121
  0
LINE
  8
0
 10
9.443
 11
9.709
 20
17.121
 21
15.18
  0
LINE
  8
0
 10
9.709
 11
12.468
 20
15.18
 21
15.666
  0
LINE
  8
0
 10
12.468
 11
12.554
 20
15.666
 21
15.04
  0
LINE
  8
0
 10
12.554
 11
12.843
 20
15.04
 21
12.543
  0
LINE
  8
0
 10
12.843
 11
13.079
 20
12.543
 21
10.041
  0
LINE
  8
0
 10
13.079
 11
13.263
 20
10.041
 21
7.535
  0
LINE
  8
0
 10
13.263
 11
13.356
 20
7.535
 21
5.758
  0
LINE
  8
0
 10
13.356
 11
13.361
 20
5.758
 21
5.758
  0
LINE
  8
0
 10
13.361
 11
13.367
 20
5.758
 21
5.653
  0
LINE
  8
0
 10
13.367
 11
13.379
 20
5.653
 21
5.322
  0
LINE
  8
0
 10
13.379
 11
13.383
 20
5.322
 21
5.229
  0
LINE
  8
0
 10
13.383
 11
13.459
 20
5.229
 21
3.141
  0
LINE
  8
0
 10
13.459
 11
13.499
 20
3.141
 21
0.628
  0
LINE
  8
0
 10
13.499
 11
13.498
 20
0.628
 21
0.523
  0
LINE
  8
0
 10
13.498
 11
10.708
 20
0.523
 21
0.511
  0
LINE
  8
0
 10
10.708
 11
10.708
 20
0.511
 21
0.613
  0
LINE
  8
0
 10
10.708
 11
10.67
 20
0.613
 21
3.068
  0
LINE
  8
0
 10
10.67
 11
10.591
 20
3.068
 21
5.229
  0
LINE
  8
0
 10
10.591
 11
10.58
 20
5.229
 21
5.229
  0
LINE
  8
0
 10
10.58
 11
10.597
 20
5.229
 21
4.908
  0
LINE
  8
0
 10
10.597
 11
10.674
 20
4.908
 21
2.454
  0
LINE
  8
0
 10
10.674
 11
10.7
 20
2.454
 21
0
  0
LINE
  8
0
 10
10.7
 11
10.674
 20
0
 21
-2.454
  0
LINE
  8
0
 10
10.674
 11
10.597
 20
-2.454
 21
-4.908
  0
LINE
  8
0
 10
10.597
 11
10.58
 20
-4.908
 21
-5.23
  0
LINE
  8
0
 10
10.58
 11
13.384
 20
-5.23
 21
-5.23
  0
LINE
  8
0
 10
13.384
 11
13.263
 20
-5.23
 21
-7.535
  0
LINE
  8
0
 10
13.263
 11
13.079
 20
-7.535
 21
-10.041
  0
LINE
  8
0
 10
13.079
 11
12.843
 20
-10.041
 21
-12.543
  0
LINE
  8
0
 10
12.843
 11
12.554
 20
-12.543
 21
-15.04
  0
LINE
  8
0
 10
12.554
 11
12.54
 20
-15.04
 21
-15.144
  0
LINE
  8
0
 10
12.54
 11
12.528
 20
-15.144
 21
-15.248
  0
LINE
  8
0
 10
12.528
 11
12.182
 20
-15.248
 21
-17.737
  0
LINE
  8
0
 10
12.182
 11
11.785
 20
-17.737
 21
-20.219
  0
LINE
  8
0
 10
11.785
 11
11.766
 20
-20.219
 21
-20.322
  0
LINE
  8
0
 10
11.766
 11
9.016
 20
-20.322
 21
-19.849
  0
LINE
  8
0
 10
9.016
 11
9.034
 20
-19.849
 21
-19.749
  0
LINE
  8
0
 10
9.034
 11
9.423
 20
-19.749
 21
-17.325
  0
LINE
  8
0
 10
9.423
 11
9.72
 20
-17.325
 21
-15.183
  0
LINE
  8
0
 10
9.72
 11
9.709
 20
-15.183
 21
-15.181
  0
LINE
  8
0
 10
9.709
 11
9.443
 20
-15.181
 21
-17.121
  0
LINE
  8
0
 10
9.443
 11
9.059
 20
-17.121
 21
-19.545
  0
LINE
  8
0
 10
9.059
 11
8.624
 20
-19.545
 21
-21.961
  0
LINE
  8
0
 10
8.624
 11
8.139
 20
-21.961
 21
-24.367
  0
LINE
  8
0
 10
8.139
 11
7.89
 20
-24.367
 21
-25.481
  0
LINE
  8
0
 10
7.89
 11
10.65
 20
-25.481
 21
-25.968
  0
LINE
  8
0
 10
10.65
 11
10.329
 20
-25.968
 21
-27.402
  0
LINE
  8
0
 10
10.329
 11
9.73
 20
-27.402
 21
-29.843
  0
LINE
  8
0
 10
9.73
 11
9.08
 20
-29.843
 21
-32.27
  0
LINE
  8
0
 10
9.08
 11
8.378
 20
-32.27
 21
-34.684
  0
LINE
  8
0
 10
8.378
 11
7.627
 20
-34.684
 21
-37.082
  0
LINE
  8
0
 10
7.627
 11
6.825
 20
-37.082
 21
-39.464
  0
LINE
  8
0
 10
6.825
 11
5.974
 20
-39.464
 21
-41.829
  0
LINE
  8
0
 10
5.974
 11
5.073
 20
-41.829
 21
-44.175
  0
LINE
  8
0
 10
5.073
 11
4.232
 20
-44.175
 21
-46.237
  0
LINE
  8
0
 10
4.232
 11
4.067
 20
-46.237
 21
-46.162
  0
LINE
  8
0
 10
4.067
 11
3.875
 20
-46.162
 21
-46.078
  0
LINE
  8
0
 10
3.875
 11
3.681
 20
-46.078
 21
-45.999
  0
LINE
  8
0
 10
3.681
 11
3.486
 20
-45.999
 21
-45.924
  0
LINE
  8
0
 10
3.486
 11
3.289
 20
-45.924
 21
-45.853
  0
LINE
  8
0
 10
3.289
 11
3.09
 20
-45.853
 21
-45.786
  0
LINE
  8
0
 10
3.09
 11
2.89
 20
-45.786
 21
-45.724
  0
LINE
  8
0
 10
2.89
 11
2.689
 20
-45.724
 21
-45.665
  0
LINE
  8
0
 10
2.689
 11
2.487
 20
-45.665
 21
-45.611
  0
LINE
  8
0
 10
2.487
 11
2.284
 20
-45.611
 21
-45.561
  0
LINE
  8
0
 10
2.284
 11
2.079
 20
-45.561
 21
-45.516
  0
LINE
  8
0
 10
2.079
 11
1.874
 20
-45.516
 21
-45.474
  0
LINE
  8
0
 10
1.874
 11
1.668
 20
-45.474
 21
-45.437
  0
LINE
  8
0
 10
1.668
 11
1.461
 20
-45.437
 21
-45.404
  0
LINE
  8
0
 10
1.461
 11
1.253
 20
-45.404
 21
-45.376
  0
LINE
  8
0
 10
1.253
 11
1.045
 20
-45.376
 21
-45.352
  0
LINE
  8
0
 10
1.045
 11
0.837
 20
-45.352
 21
-45.332
  0
LINE
  8
0
 10
0.837
 11
0.628
 20
-45.332
 21
-45.317
  0
LINE
  8
0
 10
0.628
 11
0.419
 20
-45.317
 21
-45.306
  0
LINE
  8
0
 10
0.419
 11
0.209
 20
-45.306
 21
-45.299
  0
LINE
  8
0
 10
0.209
 11
0
 20
-45.299
 21
-45.297
  0
LINE
  8
0
 10
0
 11
-0.209
 20
-45.297
 21
-45.299
  0
LINE
  8
0
 10
-0.209
 11
-0.419
 20
-45.299
 21
-45.306
  0
LINE
  8
0
 10
-0.419
 11
-0.628
 20
-45.306
 21
-45.317
  0
LINE
  8
0
 10
-0.628
 11
-0.837
 20
-45.317
 21
-45.332
  0
LINE
  8
0
 10
-0.837
 11
-1.045
 20
-45.332
 21
-45.352
  0
LINE
  8
0
 10
-1.045
 11
-1.253
 20
-45.352
 21
-45.376
  0
LINE
  8
0
 10
-1.253
 11
-1.461
 20
-45.376
 21
-45.404
  0
LINE
  8
0
 10
-1.461
 11
-1.668
 20
-45.404
 21
-45.437
  0
LINE
  8
0
 10
-1.668
 11
-1.874
 20
-45.437
 21
-45.474
  0
LINE
  8
0
 10
-1.874
 11
-2.079
 20
-45.474
 21
-45.516
  0
LINE
  8
0
 10
-2.079
 11
-2.284
 20
-45.516
 21
-45.561
  0
LINE
  8
0
 10
-2.284
 11
-2.487
 20
-45.561
 21
-45.611
  0
LINE
  8
0
 10
-2.487
 11
-2.689
 20
-45.611
 21
-45.665
  0
LINE
  8
0
 10
-2.689
 11
-2.89
 20
-45.665
 21
-45.724
  0
LINE
  8
0
 10
-2.89
 11
-3.09
 20
-45.724
 21
-45.786
  0
LINE
  8
0
 10
-3.09
 11
-3.289
 20
-45.786
 21
-45.853
  0
LINE
  8
0
 10
-3.289
 11
-3.486
 20
-45.853
 21
-45.924
  0
LINE
  8
0
 10
-3.486
 11
-3.681
 20
-45.924
 21
-45.999
  0
LINE
  8
0
 10
-3.681
 11
-3.875
 20
-45.999
 21
-46.078
  0
LINE
  8
0
 10
-3.875
 11
-4.067
 20
-46.078
 21
-46.162
  0
LINE
  8
0
 10
-4.067
 11
-4.232
 20
-46.162
 21
-46.237
  0
LINE
  8
0
 10
-4.232
 11
-5.073
 20
-46.237
 21
-44.175
  0
LINE
  8
0
 10
-5.073
 11
-5.974
 20
-44.175
 21
-41.829
  0
LINE
  8
0
 10
-5.974
 11
-6.825
 20
-41.829
 21
-39.464
  0
LINE
  8
0
 10
-6.825
 11
-7.627
 20
-39.464
 21
-37.082
  0
LINE
  8
0
 10
-7.627
 11
-7.941
 20
-37.082
 21
-36.078
  0
LINE
  8
0
 10
-7.941
 11
-5.235
 20
-36.078
 21
-35.353
  0
LINE
  8
0
 10
-5.235
 11
-5.698
 20
-35.353
 21
-33.875
  0
LINE
  8
0
 10
-5.698
 11
-6.383
 20
-33.875
 21
-31.517
  0
LINE
  8
0
 10
-6.383
 11
-7.018
 20
-31.517
 21
-29.146
  0
LINE
  8
0
 10
-7.018
 11
-7.603
 20
-29.146
 21
-26.763
  0
LINE
  8
0
 10
-7.603
 11
-7.941
 20
-26.763
 21
-25.25
  0
LINE
  8
0
 10
-7.941
 11
-7.954
 20
-25.25
 21
-25.253
  0
LINE
  8
0
 10
-7.954
 11
-7.471
 20
-25.253
 21
-27.362
  0
LINE
  8
0
 10
-7.471
 11
-6.873
 20
-27.362
 21
-29.743
  0
LINE
  8
0
 10
-6.873
 11
-6.846
 20
-29.743
 21
-29.842
  0
LINE
  8
0
 10
-6.846
 11
-9.545
 20
-29.842
 21
-30.552
  0
LINE
  8
0
 10
-9.545
 11
-9.572
 20
-30.552
 21
-30.451
  0
LINE
  8
0
 10
-9.572
 11
-10.184
 20
-30.451
 21
-28.013
  0
LINE
  8
0
 10
-10.184
 11
-10.746
 20
-28.013
 21
-25.564
  0
LINE
  8
0
 10
-10.746
 11
-10.767
 20
-25.564
 21
-25.461
  0
LINE
  8
0
 10
-10.767
 11
-10.763
 20
-25.461
 21
-25.46
  0
LINE
  8
0
 10
-10.763
 11
-10.878
 20
-25.46
 21
-24.949
  0
LINE
  8
0
 10
-10.878
 11
-11.374
 20
-24.949
 21
-22.486
  0
LINE
  8
0
 10
-11.374
 11
-11.82
 20
-22.486
 21
-20.012
  0
LINE
  8
0
 10
-11.82
 11
-12.213
 20
-20.012
 21
-17.53
  0
LINE
  8
0
 10
-12.213
 11
-12.469
 20
-17.53
 21
-15.657
  0
LINE
  8
0
 10
-12.469
 11
-9.677
 20
-15.657
 21
-15.413
  0
LINE
  8
0
 10
-9.677
 11
-9.776
 20
-15.413
 21
-14.689
  0
LINE
  8
0
 10
-9.776
 11
-10.058
 20
-14.689
 21
-12.251
  0
LINE
  8
0
 10
-10.058
 11
-10.289
 20
-12.251
 21
-9.807
  0
LINE
  8
0
 10
-10.289
 11
-10.469
 20
-9.807
 21
-7.359
  0
LINE
  8
0
 10
-10.469
 11
-10.592
 20
-7.359
 21
-4.994
  0
LINE
  8
0
 10
-10.592
 11
-10.6
 20
-4.994
 21
-4.995
  0
LINE
  8
0
 10
-10.6
 11
-10.491
 20
-4.995
 21
-7.155
  0
LINE
  8
0
 10
-10.491
 11
-10.316
 20
-7.155
 21
-9.604
  0
LINE
  8
0
 10
-10.316
 11
-10.306
 20
-9.604
 21
-9.706
  0
LINE
  8
0
 10
-10.306
 11
-13.087
 20
-9.706
 21
-9.937
  0
LINE
  8
0
 10
-13.087
 11
-13.097
 20
-9.937
 21
-9.833
  0
LINE
  8
0
 10
-13.097
 11
-13.276
 20
-9.833
 21
-7.326
  0
LINE
  8
0
 10
-13.276
 11
-13.382
 20
-7.326
 21
-5.238
  0
LINE
  8
0
 10
-13.382
 11
-13.384
 20
-5.238
 21
-5.238
  0
LINE
  8
0
 10
-13.384
 11
-13.395
 20
-5.238
 21
-5.025
  0
LINE
  8
0
 10
-13.395
 11
-13.398
 20
-5.025
 21
-4.94
  0
LINE
  8
0
 10
-13.398
 11
-13.404
 20
-4.94
 21
-4.816
  0
LINE
  8
0
 10
-13.404
 11
-13.407
 20
-4.816
 21
-4.711
  0
LINE
  8
0
 10
-13.407
 11
-13.405
 20
-4.711
 21
-4.711
  0
LINE
  8
0
 10
-13.405
 11
-13.474
 20
-4.711
 21
-2.513
  0
LINE
  8
0
 10
-13.474
 11
-13.5
 20
-2.513
 21
0
  0
LINE
  8
0
 10
-3.887
 11
-3.877
 20
-40.809
 21
-40.807
  0
LINE
  8
0
 10
-3.877
 11
-2.583
 20
-40.807
 21
-45.636
  0
LINE
  8
0
 10
-2.583
 11
-2.593
 20
-45.636
 21
-45.639
  0
LINE
  8
0
 10
-2.593
 11
-3.887
 20
-45.639
 21
-40.809
  0
LINE
  8
0
 10
2.583
 11
3.877
 20
-45.636
 21
-40.807
  0
LINE
  8
0
 10
3.877
 11
3.887
 20
-40.807
 21
-40.809
  0
LINE
  8
0
 10
3.887
 11
2.593
 20
-40.809
 21
-45.639
  0
LINE
  8
0
 10
2.593
 11
2.583
 20
-45.639
 21
-45.636
  0
ENDSEC
  0
SECTION
  2
OBJECTS
  0
DICTIONARY
  0
ENDSEC
  0
EOF
